<?xml version="1.0" encoding="UTF-8"?>
<svg id="Layer_2" data-name="Layer 2" xmlns="http://www.w3.org/2000/svg" viewBox="0 0 235.79 107.84">
  <defs>
    <style>
      .cls-1 {
        fill: #000515;
      }

      .cls-2 {
        fill: none;
        stroke: #231f20;
        stroke-miterlimit: 10;
        stroke-width: 10.29px;
      }
    </style>
  </defs>
  <g id="Layer_2-2" data-name="Layer 2">
    <g>
      <g>
        <path class="cls-1" d="M11.7,107.12v-38.46H0v-2.7h26.46v2.7h-11.76v38.46h-3Z"/>
        <path class="cls-1" d="M27.9,107.12v-31.56h1.98l.3,4.68h.36c.36-1.16.81-2.14,1.35-2.94.54-.8,1.18-1.41,1.92-1.83.74-.42,1.59-.63,2.55-.63.36,0,.66.01.9.03.24.02.46.07.66.15v2.88h-1.32c-.84,0-1.62.19-2.34.57-.72.38-1.36.96-1.92,1.74-.56.78-.99,1.74-1.29,2.88-.3,1.14-.45,2.47-.45,3.99v20.04h-2.7Z"/>
        <path class="cls-1" d="M47.7,107.84c-1.2,0-2.28-.18-3.24-.54-.96-.36-1.79-.88-2.49-1.56-.7-.68-1.23-1.55-1.59-2.61-.36-1.06-.54-2.29-.54-3.69,0-1.68.31-3.16.93-4.44.62-1.28,1.59-2.36,2.91-3.24,1.32-.88,3.04-1.56,5.16-2.04,2.12-.48,4.66-.72,7.62-.72v-5.4c0-1.44-.19-2.62-.57-3.54-.38-.92-1.04-1.62-1.98-2.1-.94-.48-2.21-.72-3.81-.72-1.76,0-3.1.33-4.02.99-.92.66-1.55,1.52-1.89,2.58-.34,1.06-.51,2.23-.51,3.51v.6h-2.58c-.04-.2-.06-.4-.06-.6v-.72c0-2.24.42-3.99,1.26-5.25.84-1.26,1.98-2.16,3.42-2.7,1.44-.54,3.04-.81,4.8-.81s3.28.28,4.56.84c1.28.56,2.28,1.45,3,2.67.72,1.22,1.08,2.83,1.08,4.83v20.04c0,.76.12,1.3.36,1.62.24.32.58.48,1.02.48h2.34v1.62c-.52.2-1.05.38-1.59.54s-1.09.24-1.65.24c-.88,0-1.55-.23-2.01-.69-.46-.46-.76-1.07-.9-1.83-.14-.76-.21-1.58-.21-2.46h-.42c-.52,1.04-1.2,1.94-2.04,2.7-.84.76-1.79,1.35-2.85,1.77-1.06.42-2.23.63-3.51.63ZM48.06,105.43c.88,0,1.81-.2,2.79-.6.98-.4,1.89-.99,2.73-1.77.84-.78,1.53-1.78,2.07-3s.81-2.63.81-4.23v-4.38c-3.48.04-6.22.37-8.22.99-2,.62-3.42,1.51-4.26,2.67-.84,1.16-1.26,2.56-1.26,4.2,0,1.4.22,2.55.66,3.45.44.9,1.06,1.57,1.86,2.01.8.44,1.74.66,2.82.66Z"/>
        <path class="cls-1" d="M66.84,107.12v-31.56h1.98l.3,4.68h.36c.68-1.4,1.44-2.49,2.28-3.27.84-.78,1.76-1.33,2.76-1.65,1-.32,2.02-.48,3.06-.48,1.44,0,2.7.26,3.78.78,1.08.52,1.93,1.39,2.55,2.61.62,1.22.93,2.91.93,5.07v23.82h-2.7v-23.52c0-1.08-.1-2.01-.3-2.79-.2-.78-.51-1.44-.93-1.98s-.94-.94-1.56-1.2c-.62-.26-1.39-.39-2.31-.39-1.28,0-2.49.41-3.63,1.23-1.14.82-2.07,2.05-2.79,3.69-.72,1.64-1.08,3.68-1.08,6.12v18.84h-2.7Z"/>
        <path class="cls-1" d="M98.7,107.84c-1.64,0-3.04-.21-4.2-.63-1.16-.42-2.1-1.03-2.82-1.83-.72-.8-1.25-1.76-1.59-2.88-.34-1.12-.51-2.4-.51-3.84v-.63c0-.22.02-.41.06-.57h2.7c-.04.2-.06.41-.06.63v.63c0,1.56.24,2.83.72,3.81.48.98,1.2,1.71,2.16,2.19.96.48,2.14.72,3.54.72s2.57-.27,3.51-.81c.94-.54,1.64-1.3,2.1-2.28.46-.98.69-2.19.69-3.63,0-1.52-.33-2.7-.99-3.54s-1.51-1.5-2.55-1.98c-1.04-.48-2.14-.96-3.3-1.44-1-.4-1.96-.83-2.88-1.29-.92-.46-1.74-1.03-2.46-1.71-.72-.68-1.28-1.5-1.68-2.46-.4-.96-.6-2.16-.6-3.6,0-1.2.19-2.29.57-3.27.38-.98.92-1.81,1.62-2.49.7-.68,1.59-1.2,2.67-1.56s2.3-.54,3.66-.54c1.56,0,2.87.2,3.93.6,1.06.4,1.92.95,2.58,1.65.66.7,1.13,1.53,1.41,2.49.28.96.42,2,.42,3.12,0,.28-.01.56-.03.84-.02.28-.05.58-.09.9h-2.64v-1.68c0-1.16-.18-2.15-.54-2.97-.36-.82-.95-1.45-1.77-1.89-.82-.44-1.91-.66-3.27-.66-1.08,0-1.98.14-2.7.42-.72.28-1.31.67-1.77,1.17-.46.5-.79,1.09-.99,1.77-.2.68-.3,1.42-.3,2.22,0,1.32.28,2.35.84,3.09.56.74,1.31,1.35,2.25,1.83.94.48,1.93.94,2.97,1.38.96.4,1.94.82,2.94,1.26,1,.44,1.92,1,2.76,1.68.84.68,1.52,1.55,2.04,2.61.52,1.06.78,2.41.78,4.05,0,1.52-.22,2.85-.66,3.99-.44,1.14-1.07,2.09-1.89,2.85-.82.76-1.79,1.33-2.91,1.71-1.12.38-2.36.57-3.72.57Z"/>
        <path d="M118.26,95.78c.36,3.36,1.74,6.3,5.46,6.3s4.86-2.22,4.86-5.28c0-3.3-1.62-5.28-6.72-7.68-6.96-3.3-9.72-6.24-9.72-12.3,0-6.48,4.2-10.92,11.52-10.92,9.18,0,11.4,6.18,11.52,11.46h-7.14c-.18-2.34-.78-5.76-4.5-5.76-2.88,0-4.14,1.86-4.14,4.62,0,2.94,1.32,4.32,6.06,6.54,7.26,3.36,10.56,6.6,10.56,13.38,0,6.42-3.96,11.7-12.54,11.7-9.36,0-12.18-6-12.42-12.06h7.2Z"/>
        <path d="M148.02,64.52v14.52c1.14-1.98,3.12-3.54,7.02-3.54,5.1,0,7.68,3.3,7.68,9.66v21.96h-7.14v-20.52c0-3-.54-4.98-3.6-4.98s-3.96,2.4-3.96,6.54v18.96h-7.14v-42.6h7.14Z"/>
        <path d="M189.06,100.34c0,1.56.12,5.4.24,6.78h-6.48c-.12-.6-.3-1.98-.3-2.88-1.2,1.98-3.24,3.42-7.02,3.42-5.94,0-8.28-4.74-8.28-9.18,0-6.36,4.38-10.26,12.24-10.26,1.08,0,1.86,0,2.58.06v-3.36c0-1.8-.24-3.96-3.36-3.96s-3.3,1.98-3.48,4.02h-6.84c.12-4.56,2.28-9.42,10.62-9.42,6.66,0,10.08,3,10.08,8.94v15.84ZM182.22,93.5c-.78-.12-1.38-.12-2.34-.12-4.08,0-5.58,1.92-5.58,4.44,0,1.86.9,4.02,3.6,4.02,3.66,0,4.32-2.76,4.32-7.32v-1.02Z"/>
        <path d="M195.48,86.6c0-5.1,0-8.34-.06-10.56h6.84c.06.54.18,1.86.18,5.16,1.14-3.54,3.9-5.64,8.1-5.64v8.04c-5.04-.12-7.92,1.32-7.92,7.2v16.32h-7.14v-20.52Z"/>
        <path d="M220.08,93.44c0,3.96.48,8.34,4.44,8.34,3.6,0,4.02-3.06,4.2-4.08h6.84c-.12.96-.84,10.02-11.1,10.02s-11.52-8.46-11.52-16.32c0-9.84,3.78-15.84,11.64-15.84,9,0,11.22,6.72,11.22,14.82,0,1.08-.06,2.52-.12,3.06h-15.6ZM228.72,88.28c0-3.06-.36-6.9-4.14-6.9-4.14,0-4.38,4.62-4.38,6.9h8.52Z"/>
      </g>
      <g>
        <path class="cls-2" d="M151.21,56.53c-.64-17.56-15.26-31.66-32.83-31.66-17.57,0-32.19,14.1-32.83,31.66"/>
        <path class="cls-2" d="M169.64,56.53c-1-28.5-23.82-51.39-51.26-51.39-27.44,0-50.26,22.88-51.26,51.39"/>
      </g>
    </g>
  </g>
</svg>